<?xml version="1.0" encoding="utf-8"?>
<!-- Generator: Adobe Illustrator 16.0.3, SVG Export Plug-In . SVG Version: 6.00 Build 0)  -->
<!DOCTYPE svg PUBLIC "-//W3C//DTD SVG 1.1//EN" "http://www.w3.org/Graphics/SVG/1.1/DTD/svg11.dtd">
<svg version="1.1" id="Capa_1" xmlns="http://www.w3.org/2000/svg" xmlns:xlink="http://www.w3.org/1999/xlink" x="0px" y="0px"
	 width="595.279px" height="841.89px" viewBox="0 0 595.279 841.89" enable-background="new 0 0 595.279 841.89"
	 xml:space="preserve">
<g enable-background="new    ">
	<path fill="#A9C4FF" d="M81.432,89.623l-0.313,0.16l-0.347-0.16v-0.4l0.208-0.16l0.382,0.08l0.069,0.24V89.623z M113.693,96.709
		l-0.277,0.4l-0.556,0.24l-0.208-0.4l-0.382-0.599l-0.486-1.119l-0.694-1.079l-1.006-2.039l-0.729-1.958l-0.277-1.399l-0.485-0.759
		l-0.867-2.837l-0.694-0.999l-0.555-1.478l-0.798-1.479l-0.624-0.64l-1.492-1.878l-0.312-1.079l-1.181-0.959l-1.495-0.32
		l-1.598,0.239l-1.633,0.318l-1.181,0.558l-1.286,1.313l-1.216,0.716l-0.278,0.676l-0.938,0.796l-1.98,1.313l-0.382,0.478
		l-0.278,1.802v1.161l-0.488,0.641v1.401l-0.208,1.481l0.208,2.402l-0.208,1.642l-0.417,1.722l-0.66,1.361l-0.764,1.081
		l-1.285,1.321l-1.215,0.24l-1.146,0.16l-0.347-0.32h-0.66l-0.486-0.681l-0.348-0.32V97.03l-0.347-0.601v-1.642l0.347-1.041
		l-0.069-0.921l0.208-0.561l0.417-0.24v-0.761l0.66-0.4l0.278-0.721l0.417-1.001l0.59-0.32l0.556-1.481l0.208-1.642l0.347-0.24
		l-0.139-1.081l0.278-1.642v-1.041l-0.625-1.562l-0.417-1.401l-0.139-1.562l-0.069-1.081l0.208-0.32l-0.139-0.561v-0.32l1.042-1.481
		v-0.48l0.59-0.761l0.764-1.401l0.938-1.562l0.208-1.121l0.07-0.841l-0.07-0.641l0.348-2.042l0.277-1.962l0.591-2.482l0.139-1.401
		l0.278-0.641l-0.069-2.122l-0.139-1.882l0.139-1.802l0.556-1.481l0.521-1.161l0.625-0.561l0.208-1.081l0.452-0.721l0.208-0.681
		l-0.208-0.48l0.139-1.081l-0.521-1.281l0.139-1.321l-0.417-0.601l0.208-1.041h0.452l0.764-0.681l0.417-0.08l0.313-0.641l1.111-0.16
		l0.938,0.48l0.799,1.401l0.347,0.24l0.556,1.241l0.66,1.481l0.278,1.401l0.625,1.602l0.799,1.241l0.069,0.681l0.556,0.721
		l0.347,0.841l0.66,1.041l-0.069,1.001l0.625,1.481l0.069,0.641l0.382,0.801l0.347,1.401l0.556,1.161l0.208,1.962l0.313,1.401
		l0.417,1.962v0.721l0.347,1.081l0.486,1.882l0.451,1.722l0.139,1.401l0.347,1.001l0.938,0.721l1.111,0.4l1.354-0.08h1.285
		l1.285,0.32l0.208,0.44l0.278,0.4l-0.278,0.24l-0.208,0.4l-0.555,0.681l-0.729,0.08l-0.278,0.4l-1.077,0.24l-1.215,0.641
		l-0.486,0.521v0.961l0.208,1.161l0.452,1.161l0.556,1.121l0.486,1.642l0.348,1.001l0.451,1.562l0.486,1.401l0.729,1.722
		l0.486,1.441l0.278,2.242l0.347,0.24l0.452,1.161l0.486,1.121v0.681l0.348,0.4L113.693,96.709z M82.683,100.313l-0.07,0.32
		l-0.486-0.08l-0.208-0.601l0.347-0.08h0.417V100.313z M85.843,69.483l-0.069,0.4l-0.313,0.24l-0.417-0.32v-0.4l0.347-0.44
		l0.382-0.16l0.069,0.24V69.483z M100.636,28.963l-0.208,0.761l-0.521,0.4v0.801l0.07,1.001l-0.625,1.081l-0.868,0.561l-0.833,0.641
		l-1.354,0.24l-1.146,0.521l-0.903,0.48l-0.66,0.16l-0.833,0.4l-1.077,0.601l-0.729,0.4l-0.764,0.24l-0.66-0.4V35.77l0.868-1.121
		l1.077-0.761l0.903-1.161l1.076-1.041l1.285-1.481l1.076-1.001l0.903-1.041l1.077-0.921l0.625-0.32h0.938l1.007,0.761l0.278,0.561
		V28.963z M100.717,70.764l-0.312-0.881l-0.694-1.481L99.572,67l-0.347-0.641l-0.243-0.841l-0.416-0.801l0.069-2.122l-0.902-1.401
		l0.277-0.601l-0.347-0.961l-0.451-2.883l-0.555-1.321l-0.069-1.041l-0.798-1.161l-0.277-0.641l-0.694-1.722l-1.428,1.642
		l0.139,1.041l-0.522,0.921v0.961l-0.139,0.521l-0.279,1.642l-0.139,1.441v0.44l-0.349,0.561v1.161l-0.139,2.282v1.081l-0.383,0.961
		l0.244,1.001l-0.383,1.241l0.591,0.961l1.633,0.841l1.703,0.721l1.424,0.921l0.799,0.641l1.39,0.32l0.938-0.24l0.278-0.24
		L100.717,70.764z M97.337,70.924l-0.417,0.12l-0.347-0.28l0.069-0.32h0.347l0.208-0.16l0.139,0.24V70.924z M113.137,73.086
		l-0.07,0.32l-0.278,0.16h-0.208v-0.24l0.069-0.32l0.139-0.08L113.137,73.086z M113.762,99.632c-0.023,0.053-0.139,0.106-0.347,0.16
		l-0.208-0.08l-0.069-0.24l0.208-0.24l0.347,0.08L113.762,99.632z"/>
	<path fill="#A9C4FF" d="M136.022,91.104l-0.278,0.44l-0.348,0.32l-0.729-0.08l-0.625-0.681l-0.208-0.721l-0.069-1.081v-0.881
		l-0.278-1.161l-0.069-1.161v-1.041l-0.313-1.081l-0.07-1.241l-0.556-1.962l-0.138-2.963l-0.589-2.042l-0.83-0.881l-1.004-0.521
		l-0.416-0.641l-0.727-0.4l-1.107,0.4l-0.796,0.32l-0.692,0.921l-0.727,0.961l-0.899,1.481l-0.381,1.001l-0.208,0.881l-0.138,0.841
		l-0.554,0.881l-0.658,0.921l-0.277,1.321l-0.069,1.481v1.441l-0.139,1.802l-0.069,1.642v1.481l0.069,1.401l0.278,1.241l0.208,1.041
		l0.069,1.001l-0.35,0.48l-0.28,0.44l-0.665,0.16h-0.631l-0.42-0.36l-0.35-0.48l-0.385-1.401l-0.21-1.121l-0.28-2.322v-0.881
		l-0.14-1.001l-0.14-1.321v-1.521l-0.14-1.401v-1.081l-0.07-1.081l-0.246-1.201v-1.481l-0.07-1.321v-5.085l-0.278-0.961
		l-0.417-0.761l-0.278-0.641l-0.278-0.841l-0.104-0.961l0.104-0.761l0.347-0.721l0.417-0.48L118.624,67l0.972-0.08l1.007,0.08
		l0.764,0.561l0.729,0.601l0.764,0.881l0.382,0.601l0.278,0.961l0.764,0.44l0.729-0.28l1.007-0.16l0.973-0.32l0.938-0.32l1.215-0.16
		l0.972-0.16l1.007,0.4l0.486,0.641l0.451,1.161l0.347,0.801l0.139,1.161l0.347,0.761l0.521,0.961l0.347,1.321l0.069,1.161
		l0.069,1.281l0.208,1.241l0.069,1.241l0.278,1.121l0.069,1.081v1.161l0.139,1.121l0.382,1.161l0.139,1.161l0.556,0.881l0.278,0.921
		V91.104z M132.827,92.265l-0.278,0.48l-0.347,0.16l-0.278-0.641l0.555-0.641L132.827,92.265z"/>
	<path fill="#A9C4FF" d="M159.288,70.844l-0.382,0.761l-0.417,0.641l-0.278,1.161l0.069,1.642v1.802l0.208,1.882v2.442l0.278,2.322
		l-0.139,2.042l0.139,2.362l-0.139,1.882l0.139,1.842l-0.278,1.121l0.139,1.481l-0.139,2.042l-0.208,1.802l-0.139,2.242
		l-0.347,1.481l-0.382,1.361l-0.625,1.882l-0.798,2.162l-0.764,1.562l-1.563,1.802l-0.938,0.801l-1.493,0.681l-1.493,0.561
		l-1.979,0.16l-1.771-0.16l-1.493-0.16l-1.354-0.681l-1.077-0.48l-0.938-1.001l-0.625-0.881l-0.348-1.161v-0.961l0.538-0.16
		l0.47,0.4l0.522,0.561l0.626,1.001l0.871,0.641l0.975,0.841l1.218,0.16l1.706,0.561l1.81-0.24l1.497-0.4l1.114-0.681l1.218-1.121
		l0.8-1.321l0.835-1.562l0.522-1.481l0.696-1.802l0.209-1.882l0.209-2.282l0.139-2.242v-1.481l-0.139-1.441l-0.07-1.001l0.07-2.202
		l-1.424,1.041l-1.702,0.601l-1.979,0.32l-1.563-0.32l-1.632-0.521l-1.702-1.121l-1.007-0.841l-1.146-0.721l-0.694-1.321
		l-0.66-1.241l0.208-1.481l-0.347-0.881l-0.556-1.722v-0.561l0.069-2.482l0.486-2.042l0.417-1.481l1.215-1.081l0.799-1.201
		l0.208-1.562l1.007-0.761l0.625-0.48l0.417-0.801l2.848-0.601l1.84,0.32l1.146,0.2l1.007,0.4l0.695,0.561l0.66,0.48l0.694-0.08
		l0.66-0.641l0.277-0.721l0.938-0.2l0.833,0.28l0.486,0.641L159.288,70.844z M145.675,94.227l-0.069,0.761l-0.556,0.48h-1.077
		l-0.486-0.841l1.007-0.4l0.556-0.561L145.675,94.227z M155.781,86.339l-0.209-1.361v-1.481l0.07-1.562l-0.139-3.043l-0.209-1.722
		l-0.349-1.081l-0.732-0.801l-0.907,0.24l-1.011,0.681l-1.011,0.721l-1.081,1.161l-1.499,0.721l-1.708,3.043l-0.069,1.642
		l-0.208,1.321l0.487,1.121l0.871,0.921l0.941,1.562l1.639,1.041l1.29,0.32l1.639-0.08l1.638-0.32l0.418-1.481L155.781,86.339z"/>
	<path fill="#A9C4FF" d="M185.02,77.731l-0.625,1.081l-1.007,0.641l-1.216,0.601l-1.493,0.561l-1.632,0.16l-1.493,0.4l-1.042,0.601
		l-1.215,0.48l-1.007,0.32l-1.632,0.08l-1.285-0.16l-0.868,0.08l-0.764,0.32l-0.347,0.921l0.139,1.722l0.417,0.921l0.798,1.121
		l1.494,1.882l0.764,0.841l1.493,0.881l0.799,0.44l0.972,0.48h1.146l1.077-0.32l0.903-0.16l1.007-0.44l1.007-0.24h0.625l0.069,0.32
		l-0.347,0.44l-0.625,0.48l-1.077,0.641l-1.146,0.681l-1.076,0.48l-1.042,0.32l-1.563-0.08l-1.563-0.4l-1.285-0.761l-1.493-1.121
		l-1.354-1.321l-0.938-0.721l-0.694-0.761l-0.59-0.961l-0.417-0.36l-0.868-2.442l-0.764-2.122l-0.486-1.722l-0.174-1.321
		l0.104-1.481l0.278-1.562l0.278-1.321l0.347-0.881l0.347-1.001l0.313-0.48l0.625-0.641l0.486-0.08l0.868-1.401l1.007-1.001
		l1.042-0.641l1.285-0.24h1.632l1.354-0.08l1.84,0.24l1.493,0.48l4.132,2.362l1.077,0.761l1.007,1.041l0.556,0.841l0.347,1.401
		V77.731z M178.422,75.393l-0.59-0.73l-0.903-0.527l-1.007-0.487l-1.146-0.162h-1.111l-1.007,0.325l-1.007,0.486l-0.903,0.771
		l-0.521,0.325l-0.556,0.729l0.208,0.527l0.486-0.082l0.799,0.082h1.354l1.146,0.32h1.181l1.285-0.08l1.146-0.322l1.007-0.324
		L178.422,75.393z M181.478,89.903l-0.417,0.4l-0.382-0.4l0.208-0.521h0.521L181.478,89.903z"/>
	<path fill="#A9C4FF" d="M196.688,45.339l-0.208,0.761v0.961l-0.069,1.481l-0.313,1.321l-0.278,1.802l0.278,1.401l-0.278,1.241
		l-0.139,1.562l-0.278,3.844l-0.278,1.161l-0.07,1.281l0.07,1.882l-0.59,1.321l-0.208,1.802l-0.347,1.962l-0.278,2.162l-0.278,1.481
		l-0.452,1.121l0.07,0.841v1.121l-0.278,1.081l-0.139,1.401l-0.069,1.121l-0.208,1.562v1.321L192,83.817v3.604l0.069,1.161v1.121
		l0.139,1.161l0.417,0.921l0.938,0.961l0.486,0.761l1.146,1.281l-0.139,0.601h-0.729l-0.833-0.4l-1.007-0.921l-0.938-1.562
		l-0.625-1.321l-0.069-1.281l-0.069-1.642V87.02l-0.208-1.401l-0.173-1.401v-1.562l0.382-1.562l0.069-1.562l0.208-1.121l0.208-1.241
		l-0.139-1.321l0.139-1.481v-1.602l0.208-1.241l-0.208-1.321l-0.139-1.642l0.139-2.042l-0.348-2.282l-0.069-2.242l0.069-1.882
		l-0.139-4.164l0.069-1.722l-0.069-1.722l-0.382-1.562l-0.348-1.642l-0.278-1.722l-0.555-1.161l-0.59-1.081l-0.348-1.201v-1.481
		l0.625-0.921l1.007-0.561l1.007-0.48h0.903l0.868,0.08l1.007,0.561l0.972,1.001l0.729,0.641l0.694,0.841L196.688,45.339z
		 M198.459,79.533l-0.486,0.44l-0.59-0.32l0.348-0.841l0.66,0.08L198.459,79.533z"/>
	<path fill="#A9C4FF" d="M222.698,63.397l-0.07,0.48l-0.556,0.36l-0.347-0.601l0.417-0.641L222.698,63.397z M248.603,88.261
		l-0.069,1.121l-0.521,0.921l-0.278,0.721l-0.625,0.601h-1.077l-0.938,0.32l-1.042,0.4h-1.216l-1.423-0.16l-1.632,0.32h-1.077
		l-1.215,0.4l-0.972,0.681l-1.354,0.48l-1.285,0.921l-1.077,0.801h-1.979l-1.215-0.24h-1.424l-1.146-0.08l-0.972-0.24l-1.077-0.44
		l-1.215,0.2l-0.798-0.28l-0.348-0.641l0.07-0.921v-1.041l0.069-0.921l0.382-0.881l-0.173-0.921l0.173-0.801l0.208-1.001v-1.241
		l0.347-1.521l0.069-1.562l-0.069-1.321l0.208-1.241l0.139-1.401l0.278-1.201l0.069-1.481l-0.069-0.841v-3.123l0.069-1.361v-1.802
		l0.174-1.321l0.139-1.722l0.069-1.081l-0.069-1.121l-0.139-1.161l0.139-1.081v-1.401l0.069-1.281l0.139-1.241l-0.139-0.761
		l0.139-0.801l0.139-1.081l-0.07-0.801l0.278-1.001l-0.347-0.881l-0.139-1.161v-1.321l-0.069-1.201l-0.139-1.241v-1.081l0.347-0.721
		l-0.521-0.681l-0.139-0.801l0.452-0.721v-0.921l0.277-1.001v-1.201l0.07-1.081l-0.07-0.721l0.625-0.921l0.729-0.721l0.694-0.32
		l0.868-0.12l0.903-0.32l0.868,0.08l0.799,0.601l0.764,0.48l0.938,0.721l0.625,1.081l0.278,1.161l0.139,0.881l-0.278,1.081
		l-0.139,0.801l-0.833,0.841l-0.521,0.961l-0.208,1.562l-0.347,1.081l-0.208,1.081l-0.208,1.121l-0.313,1.161v1.321l-0.347,1.281
		l-0.278,2.322v1.201l-0.347,1.081l-0.208,0.841l-0.382,0.721l-0.069,1.081l-0.208,1.281l-0.278,2.723v1.321l-0.347,1.121
		l-0.139,1.481l-0.313,1.401v1.321l-0.208,0.961l-0.139,0.841v1.241l-0.278,1.041l-0.069,1.081l-0.208,1.241l-0.347,1.361
		l0.069,1.001l-0.069,1.642l-0.243,1.241l-0.208,0.881v0.601l-0.139,0.881l-0.069,1.081l0.208,0.48l0.66,0.16l0.764-0.4l1.215-0.16
		l1.354-0.16h0.764l1.007,0.48h1.146l0.764-0.32l0.938-0.08l1.285-0.521l0.695-0.32l1.076,0.08l1.354,0.24l1.285-0.24l1.493-0.4
		l1.146-0.641l0.903-0.521l0.208-0.721l1.007-0.641l0.799-0.44l0.973,0.24l0.729,0.601l0.417,0.881l0.729,0.841l0.139,0.881
		l0.208,1.081V88.261z M243.464,75.048l-0.208,0.48l-0.417-0.16l-0.347-0.721l0.486-0.681l0.486,0.4V75.048z"/>
	<path fill="#A9C4FF" d="M272.147,91.184l-0.348,0.681l-0.451,0.32l-0.556,0.08l-0.486-0.16l-0.313-0.4l-0.556-0.761l-0.694-0.641
		l-0.521-0.601l-0.903-2.282l-0.139-0.961l-0.243-0.841l-0.208-0.641h-0.278l-0.347,0.48l-0.417,0.801l-0.243,0.761l-0.208,0.801
		l-0.347,0.841l-0.417,0.721l-0.521,0.681l-0.556,0.881l-0.938,0.601l-0.695,0.4l-1.354,0.4l-1.077,0.08l-0.833-0.16l-0.938-0.561
		l-1.146-0.36l-0.764-0.721l-0.938-0.561l-0.556-0.681l-0.799-0.801l-0.277-1.241l-0.417-1.321l-0.278-1.281l-0.313-1.562
		l-0.278-0.921l0.208-1.241l-0.347-1.481l-0.07-0.801l-0.069-1.241l-0.139-1.041l-0.139-0.761l0.069-1.041l0.208-0.841l0.695-0.881
		l0.938-0.44l0.729-0.08l0.903,0.16l0.868,0.521l0.625,0.561l0.59,1.001l0.348,0.881l0.278,1.241l-0.139,0.881l-0.486,0.761
		l-0.451,0.881l-0.069,1.161l-0.348,1.321v1.121l0.07,1.562l0.347,1.642l0.521,0.761l0.556,1.041l1.007,0.841l0.972,0.561l1.216,0.4
		l0.938-0.4l0.903-0.561l0.729-0.841l0.695-1.281l0.521-1.081l0.417-1.081l0.347-1.121l0.278-1.481l0.174-1.722l-0.313-1.481
		l-0.208-1.321l-0.208-0.561l0.139-1.081l-0.07-1.041l0.139-0.841l0.208-0.721l0.139-1.081l0.382-0.641l0.417-0.32l0.625,0.24
		l0.313,0.641l0.069,0.561l0.278,0.841l-0.069,0.801v1.241l-0.278,1.241v0.561l-0.313,0.48l0.173,1.001l0.139,1.161l0.347,1.041
		l0.069,1.642l0.348,1.081l0.277,1.401l0.139,1.121l0.382,1.241l0.417,0.921l0.556,0.801l0.59,0.721l1.563,0.841L272.147,91.184z
		 M260.201,80.774l-0.139,1.882l-1.007,1.161l-0.833-0.921l-0.59-1.361l0.069-1.481l-0.347-0.841l0.417-0.48l0.729,0.08l0.694,0.48
		L260.201,80.774z"/>
	<path fill="#A9C4FF" d="M274.196,77.411l-0.348,0.601l-0.347-0.36l-0.382-0.48l0.451-0.561h0.625V77.411z M292.462,73.887
		l-0.139,1.081l-0.347,0.801l-0.938,1.882l-0.972,0.36h-1.354l-1.146-0.44l-0.903-0.16l-1.215-0.4h-1.077l-0.729,0.32l-1.25,0.841
		l-0.729,0.881l-0.764,1.161l-0.521,1.161l-0.278,0.961l-0.208,0.681l-0.486,0.48l-0.313,1.642l-0.069,1.201v2.322l0.452,1.241
		l0.903,1.041l0.798,0.4l1.216,0.44l0.764,0.4h2.639l1.146-0.24l0.625-0.32l0.486-0.44l0.66,0.08l0.347,0.681l-0.139,0.561
		l-0.695,0.641l-0.938,0.521l-1.215,0.561l-1.077,0.4l-0.903,0.16l-1.771,0.2l-1.667-0.2l-0.973-0.48l-0.938-0.48l-0.972-0.761
		l-0.729-0.32l-0.417-1.121l-0.452-1.001l-0.278-1.161l-0.139-1.481l-0.347-1.642l-0.208-1.802v-1.281l-0.069-1.722l0.069-1.321
		l0.208-1.401l0.486-1.161l0.208-0.801v-1.562l0.313-1.161l1.354-1.361l0.625-0.36l0.486-0.16l1.285-0.561l0.868-0.32l0.764-0.08
		l1.285-0.36l1.285-0.561l1.007-0.32l1.042-0.32l1.007,0.08l1.146,0.24l1.076,0.4l1.042,0.921l0.868,0.641l0.694,0.841
		L292.462,73.887z"/>
	<path fill="#A9C4FF" d="M316.735,77.731l-0.625,1.081l-1.007,0.641l-1.216,0.601l-1.493,0.561l-1.632,0.16l-1.493,0.4l-1.042,0.601
		l-1.215,0.48l-1.008,0.32l-1.632,0.08l-1.285-0.16l-0.868,0.08l-0.764,0.32l-0.348,0.921l0.139,1.722l0.417,0.921l0.799,1.121
		l1.493,1.882l0.764,0.841l1.493,0.881l0.8,0.44l0.972,0.48h1.146l1.076-0.32l0.902-0.16l1.008-0.44l1.007-0.24h0.625l0.069,0.32
		l-0.347,0.44l-0.626,0.48l-1.076,0.641l-1.146,0.681l-1.077,0.48l-1.041,0.32l-1.563-0.08l-1.563-0.4l-1.285-0.761l-1.493-1.121
		l-1.354-1.321l-0.938-0.721l-0.694-0.761l-0.59-0.961l-0.417-0.36l-0.868-2.442l-0.764-2.122l-0.486-1.722l-0.174-1.321
		l0.104-1.481l0.278-1.562l0.278-1.321l0.347-0.881l0.347-1.001l0.313-0.48l0.625-0.641l0.486-0.08l0.868-1.401l1.007-1.001
		l1.042-0.641l1.284-0.24h1.633l1.354-0.08l1.84,0.24l1.493,0.48l4.133,2.362l1.076,0.761l1.008,1.041l0.556,0.841l0.347,1.401
		V77.731z M310.137,75.393l-0.591-0.73l-0.902-0.527l-1.007-0.487l-1.146-0.162h-1.111l-1.007,0.325l-1.007,0.486l-0.903,0.771
		l-0.521,0.325l-0.556,0.729l0.208,0.527l0.486-0.082l0.799,0.082h1.354l1.146,0.32h1.181l1.285-0.08l1.146-0.322l1.008-0.324
		L310.137,75.393z M313.193,89.903l-0.417,0.4l-0.382-0.4l0.209-0.521h0.521L313.193,89.903z"/>
	<path fill="#A9C4FF" d="M339.688,91.104l-0.277,0.44l-0.348,0.32l-0.729-0.08l-0.625-0.681l-0.208-0.721l-0.069-1.081v-0.881
		l-0.278-1.161l-0.069-1.161v-1.041l-0.313-1.081l-0.069-1.241l-0.556-1.962l-0.138-2.963l-0.589-2.042l-0.83-0.881l-1.004-0.521
		l-0.416-0.641l-0.727-0.4l-1.107,0.4l-0.796,0.32l-0.692,0.921l-0.727,0.961l-0.9,1.481l-0.381,1.001l-0.207,0.881l-0.139,0.841
		l-0.554,0.881l-0.657,0.921l-0.277,1.321l-0.069,1.481v1.441l-0.138,1.802l-0.07,1.642v1.481l0.07,1.401l0.277,1.241l0.208,1.041
		l0.07,1.001l-0.35,0.48l-0.28,0.44l-0.665,0.16h-0.631l-0.42-0.36l-0.35-0.48l-0.386-1.401l-0.21-1.121l-0.279-2.322v-0.881
		l-0.141-1.001l-0.14-1.321v-1.521l-0.14-1.401v-1.081l-0.07-1.081l-0.245-1.201v-1.481l-0.07-1.321v-5.085l-0.277-0.961
		l-0.417-0.761l-0.278-0.641l-0.277-0.841l-0.104-0.961l0.104-0.761l0.348-0.721l0.416-0.48L322.291,67l0.973-0.08L324.27,67
		l0.764,0.561l0.729,0.601l0.764,0.881l0.382,0.601l0.278,0.961l0.764,0.44l0.729-0.28l1.007-0.16l0.973-0.32l0.938-0.32l1.216-0.16
		l0.972-0.16l1.007,0.4l0.486,0.641l0.452,1.161l0.347,0.801l0.139,1.161l0.348,0.761l0.521,0.961l0.348,1.321l0.069,1.161
		l0.069,1.281l0.209,1.241l0.069,1.241l0.277,1.121l0.069,1.081v1.161l0.139,1.121l0.383,1.161l0.139,1.161l0.556,0.881l0.277,0.921
		V91.104z M336.494,92.265l-0.278,0.48l-0.347,0.16l-0.278-0.641l0.556-0.641L336.494,92.265z"/>
	<path fill="#A9C4FF" d="M362.157,92.345l-0.07,0.561l-0.485,0.601h-0.521l-0.556-0.681l-0.277-1.041l-0.452-0.841l-0.277-1.161
		l-0.277-0.32l-0.417,0.24l-0.591,0.44l-0.625,0.881l-1.007,0.681l-0.625,0.721l-1.076,0.641l-1.216,0.521l-1.042,0.4l-0.938,0.32
		l-0.694,0.32l-0.729-0.24l-1.007-0.16l-1.181-0.561l-1.076-0.761l-0.66-0.961l-0.486-1.081l-0.069-1.722v-1.161l0.208-1.281
		l0.66-1.321l0.625-1.241l0.868-0.881l0.903-0.761l1.215-0.24l1.077-0.16l1.215-0.32l1.042-0.761l1.354-0.801l0.659-0.32l0.695-0.24
		l0.277-0.841l-0.556-1.161l-0.66-1.041l-1.389-1.481l-1.424-0.48l-1.146-0.08l-0.417,0.08h-0.729l-0.868,0.48l-0.764,0.561
		l-0.938,0.16h-1.042l-1.215,0.36h-1.077l-0.868-0.521l-0.625-0.721l-0.069-1.001l0.208-0.881l0.729-1.001l0.764-1.161l0.938-0.881
		l1.041-0.641l1.146-1.081l1.076-0.561l1.979-0.44l1.701-0.16l1.216,0.4l1.007,0.601l1.077,0.4l1.215,0.921l0.625,0.721l0.625,1.161
		l0.451,1.481l0.348,1.441l0.486,1.922l0.451,1.441l0.069,1.241l-0.069,1.562l0.348,1.802l0.208,1.882l0.625,3.283l0.382,1.241
		l0.348,1.121l0.277,1.401L362.157,92.345z M357.33,83.817l-0.278-0.48l-1.007-0.32l-0.868,0.08l-0.764,0.4l-0.868,0.32
		l-0.903,0.561l-0.868,0.16l-0.764,0.44l-0.66,0.561l-0.416,0.721l-0.521,0.921l-0.139,0.801l-0.277,0.761v0.961l0.347,0.841
		l0.938,0.32h1.007l1.111-0.32l0.521-0.641l0.694-0.2l1.632-1.281l0.799-0.601l0.556-1.041l0.591-0.841l0.069-1.121L357.33,83.817z
		 M359.17,92.105l-0.277,0.24l-0.591-0.24l0.174-0.48l0.417-0.28L359.17,92.105z M361.948,85.218l-0.417,0.32l-0.382-0.16v-0.48
		l0.66-0.36L361.948,85.218z"/>
</g>
<path fill="#6A99FF" d="M432.139,82.445c-0.332-6.415-10.334-6.448-10,0c0.831,16.044-4.15,30.879-17.876,40.099
	c-13.242,8.896-30.103,11.321-45.708,11.809c-16.482,0.515-33.067-1.474-49.088-5.296c-25.711-6.134-50.517-14.528-77.328-13.611
	c-23.958,0.819-47.183,7.885-71,10c-6.371,0.566-6.426,10.571,0,10c31.164-2.768,61.198-12.76,92.761-9.074
	c22.396,2.616,43.559,11.102,65.704,14.957c30.868,5.373,70.132,6.75,95.635-14.619C428.251,115.806,432.992,98.9,432.139,82.445z"
	/>
</svg>
