<?xml version="1.0" encoding="utf-8"?>
<!-- Generator: Adobe Illustrator 16.0.3, SVG Export Plug-In . SVG Version: 6.00 Build 0)  -->
<!DOCTYPE svg PUBLIC "-//W3C//DTD SVG 1.1//EN" "http://www.w3.org/Graphics/SVG/1.1/DTD/svg11.dtd">
<svg version="1.1" id="Capa_1" xmlns="http://www.w3.org/2000/svg" xmlns:xlink="http://www.w3.org/1999/xlink" x="0px" y="0px"
	 width="595.279px" height="841.89px" viewBox="0 0 595.279 841.89" enable-background="new 0 0 595.279 841.89"
	 xml:space="preserve">
<g enable-background="new    ">
	<path fill="#D8A9FF" d="M65.937,88.694l-0.324,0.16l-0.359-0.16v-0.4l0.216-0.16l0.396,0.08l0.072,0.24V88.694z M99.343,95.781
		l-0.288,0.4l-0.575,0.24l-0.216-0.4l-0.396-0.599l-0.503-1.119l-0.718-1.079l-1.042-2.039l-0.754-1.958l-0.287-1.399l-0.503-0.759
		l-0.898-2.837l-0.719-0.999l-0.575-1.478l-0.826-1.479l-0.646-0.64l-1.545-1.878l-0.323-1.079l-1.223-0.959l-1.547-0.32
		l-1.655,0.239l-1.691,0.318l-1.223,0.558l-1.331,1.313l-1.259,0.716l-0.288,0.676l-0.972,0.796l-2.051,1.313l-0.396,0.478
		l-0.288,1.802v1.161l-0.505,0.641v1.401l-0.216,1.481l0.216,2.402l-0.216,1.642l-0.431,1.722l-0.684,1.361l-0.791,1.081
		l-1.331,1.321l-1.258,0.24l-1.187,0.16l-0.36-0.32h-0.683l-0.503-0.681l-0.359-0.32v-0.801l-0.36-0.601v-1.642l0.36-1.041
		l-0.072-0.921l0.216-0.561l0.432-0.24v-0.761l0.683-0.4l0.288-0.721l0.432-1.001l0.611-0.32l0.575-1.481l0.216-1.642l0.36-0.24
		l-0.144-1.081l0.288-1.642v-1.041l-0.647-1.562l-0.432-1.401l-0.144-1.562l-0.072-1.081l0.216-0.32l-0.144-0.561v-0.32l1.079-1.481
		v-0.48l0.611-0.761l0.792-1.401l0.971-1.562l0.216-1.121l0.072-0.841l-0.072-0.641l0.359-2.042l0.288-1.962l0.611-2.482
		l0.144-1.401l0.288-0.641l-0.072-2.122l-0.144-1.882l0.144-1.802l0.575-1.481l0.54-1.161l0.647-0.561l0.216-1.081l0.468-0.721
		l0.216-0.681l-0.216-0.48l0.144-1.081l-0.539-1.281l0.144-1.321l-0.432-0.601l0.216-1.041h0.468l0.791-0.681l0.432-0.08
		l0.323-0.641l1.151-0.16l0.971,0.48l0.827,1.401l0.36,0.24l0.575,1.241l0.683,1.481l0.288,1.401l0.647,1.602l0.827,1.241
		l0.072,0.681l0.575,0.721l0.36,0.841l0.683,1.041l-0.072,1.001l0.647,1.481l0.072,0.641l0.396,0.801l0.359,1.401l0.575,1.161
		l0.216,1.962l0.324,1.401l0.432,1.962v0.721l0.359,1.081l0.503,1.882l0.468,1.722l0.144,1.401l0.36,1.001l0.971,0.721l1.151,0.4
		l1.402-0.08h1.331l1.331,0.32l0.215,0.44l0.288,0.4l-0.288,0.24l-0.215,0.4l-0.576,0.681l-0.755,0.08l-0.288,0.4l-1.115,0.24
		l-1.259,0.641l-0.503,0.521v0.961l0.216,1.161l0.467,1.161l0.576,1.121l0.503,1.642l0.359,1.001l0.467,1.562l0.503,1.401
		l0.755,1.722l0.503,1.441l0.288,2.242l0.36,0.24l0.467,1.161l0.503,1.121v0.681l0.359,0.4L99.343,95.781z M67.231,99.384
		l-0.072,0.32l-0.503-0.08l-0.216-0.601l0.36-0.08h0.431V99.384z M70.504,68.554l-0.072,0.4l-0.324,0.24l-0.432-0.32v-0.4l0.36-0.44
		l0.396-0.16l0.072,0.24V68.554z M85.822,28.035l-0.216,0.761l-0.539,0.4v0.801l0.072,1.001l-0.647,1.081l-0.899,0.561L82.73,33.28
		l-1.402,0.24l-1.187,0.521l-0.935,0.48l-0.683,0.16l-0.863,0.4l-1.115,0.601l-0.755,0.4l-0.792,0.24l-0.683-0.4v-1.081l0.899-1.121
		l1.115-0.761l0.935-1.161l1.115-1.041l1.331-1.481l1.115-1.001l0.935-1.041l1.115-0.921l0.647-0.32h0.971l1.042,0.761l0.288,0.561
		V28.035z M85.906,69.835l-0.323-0.881l-0.719-1.481l-0.144-1.401l-0.359-0.641L84.11,64.59l-0.431-0.801l0.072-2.122l-0.934-1.401
		l0.287-0.601l-0.359-0.961l-0.467-2.883L81.703,54.5l-0.072-1.041l-0.826-1.161l-0.287-0.641l-0.719-1.722l-1.479,1.642
		l0.144,1.041l-0.541,0.921V54.5l-0.145,0.521l-0.288,1.642l-0.145,1.441v0.44l-0.361,0.561v1.161l-0.144,2.282v1.081l-0.397,0.961
		l0.252,1.001L76.3,66.833l0.612,0.961l1.69,0.841l1.763,0.721l1.475,0.921l0.828,0.641l1.439,0.32l0.972-0.24l0.288-0.24
		L85.906,69.835z M82.406,69.996l-0.432,0.12l-0.359-0.28l0.072-0.32h0.36l0.216-0.16l0.144,0.24V69.996z M98.767,72.158
		l-0.072,0.32l-0.288,0.16h-0.216v-0.24l0.072-0.32l0.144-0.08L98.767,72.158z M99.415,98.704c-0.024,0.053-0.144,0.106-0.36,0.16
		l-0.215-0.08l-0.072-0.24l0.216-0.24l0.36,0.08L99.415,98.704z"/>
	<path fill="#D8A9FF" d="M122.465,90.175l-0.288,0.44l-0.359,0.32l-0.755-0.08l-0.647-0.681l-0.216-0.721l-0.072-1.081v-0.881
		l-0.288-1.161l-0.072-1.161v-1.041l-0.324-1.081l-0.072-1.241l-0.575-1.962l-0.144-2.963l-0.609-2.042l-0.86-0.881l-1.04-0.521
		l-0.43-0.641l-0.752-0.4l-1.146,0.4l-0.825,0.32l-0.716,0.921L111.521,75l-0.932,1.481l-0.394,1.001l-0.215,0.881l-0.144,0.841
		l-0.573,0.881l-0.681,0.921l-0.287,1.321l-0.071,1.481v1.441l-0.143,1.802l-0.072,1.642v1.481l0.072,1.401l0.288,1.241l0.216,1.041
		l0.072,1.001l-0.362,0.48l-0.29,0.44l-0.689,0.16h-0.653l-0.435-0.36l-0.363-0.48l-0.399-1.401l-0.217-1.121l-0.29-2.322v-0.881
		l-0.145-1.001l-0.145-1.321v-1.521l-0.145-1.401v-1.081l-0.073-1.081l-0.254-1.201v-1.481l-0.072-1.321v-5.085l-0.288-0.961
		l-0.432-0.761l-0.288-0.641l-0.288-0.841l-0.108-0.961l0.108-0.761l0.359-0.721l0.432-0.48l0.827-0.681l1.007-0.08l1.042,0.08
		l0.791,0.561l0.755,0.601l0.791,0.881l0.396,0.601l0.288,0.961l0.792,0.44l0.755-0.28l1.043-0.16l1.007-0.32l0.971-0.32l1.259-0.16
		l1.007-0.16l1.042,0.4l0.503,0.641l0.468,1.161l0.359,0.801l0.144,1.161l0.359,0.761l0.54,0.961l0.359,1.321l0.072,1.161
		l0.072,1.281l0.216,1.241l0.072,1.241l0.288,1.121l0.072,1.081v1.161l0.144,1.121l0.396,1.161l0.144,1.161l0.575,0.881l0.288,0.921
		V90.175z M119.156,91.336l-0.288,0.48l-0.36,0.16l-0.288-0.641l0.576-0.641L119.156,91.336z"/>
	<path fill="#D8A9FF" d="M146.557,69.916l-0.396,0.761l-0.432,0.641l-0.288,1.161l0.072,1.642v1.802l0.216,1.882v2.442l0.288,2.322
		l-0.144,2.042l0.144,2.362l-0.144,1.882l0.144,1.842l-0.288,1.121l0.144,1.481l-0.144,2.042l-0.216,1.802l-0.144,2.242
		l-0.359,1.481l-0.396,1.361l-0.647,1.882l-0.827,2.162l-0.791,1.562l-1.618,1.802l-0.971,0.801l-1.546,0.681l-1.546,0.561
		l-2.049,0.16l-1.834-0.16l-1.546-0.16l-1.402-0.681l-1.115-0.48l-0.971-1.001l-0.647-0.881l-0.359-1.161v-0.961l0.556-0.16
		l0.486,0.4l0.541,0.561l0.649,1.001l0.901,0.641l1.009,0.841l1.261,0.16l1.767,0.561l1.874-0.24l1.55-0.4l1.153-0.681l1.262-1.121
		l0.829-1.321l0.865-1.562l0.541-1.481l0.721-1.802l0.216-1.882l0.216-2.282l0.144-2.242v-1.481l-0.144-1.441l-0.072-1.001
		l0.072-2.202l-1.474,1.041l-1.762,0.601l-2.049,0.32l-1.618-0.32l-1.69-0.521l-1.762-1.121l-1.043-0.841l-1.187-0.721l-0.719-1.321
		l-0.683-1.241l0.216-1.481l-0.36-0.881l-0.575-1.722v-0.561l0.072-2.482l0.503-2.042l0.432-1.481l1.259-1.081l0.827-1.201
		l0.216-1.562l1.043-0.761l0.647-0.48l0.431-0.801l2.949-0.601l1.906,0.32l1.187,0.2l1.043,0.4l0.719,0.561l0.683,0.48l0.719-0.08
		l0.683-0.641l0.288-0.721l0.971-0.2l0.863,0.28l0.503,0.641L146.557,69.916z M132.461,93.298l-0.072,0.761l-0.575,0.48h-1.115
		l-0.503-0.841l1.042-0.4l0.576-0.561L132.461,93.298z M142.926,85.411l-0.217-1.361v-1.481l0.073-1.562l-0.145-3.043l-0.217-1.722
		l-0.361-1.081l-0.758-0.801l-0.939,0.24l-1.047,0.681l-1.047,0.721l-1.119,1.161l-1.552,0.721l-1.769,3.043l-0.072,1.642
		l-0.216,1.321l0.505,1.121l0.902,0.921l0.975,1.562l1.697,1.041l1.335,0.32l1.697-0.08l1.697-0.32l0.433-1.481L142.926,85.411z"/>
	<path fill="#D8A9FF" d="M173.202,76.802l-0.647,1.081l-1.043,0.641l-1.258,0.601l-1.546,0.561l-1.69,0.16l-1.546,0.4l-1.079,0.601
		l-1.259,0.48l-1.043,0.32l-1.69,0.08l-1.331-0.16l-0.899,0.08l-0.791,0.32l-0.36,0.921l0.144,1.722l0.432,0.921l0.827,1.121
		l1.546,1.882l0.791,0.841l1.546,0.881l0.827,0.44l1.007,0.48h1.187l1.115-0.32l0.935-0.16l1.043-0.44l1.042-0.24h0.647l0.072,0.32
		l-0.359,0.44l-0.647,0.48l-1.115,0.641l-1.187,0.681l-1.115,0.48l-1.079,0.32l-1.618-0.08l-1.618-0.4l-1.331-0.761l-1.546-1.121
		l-1.402-1.321l-0.971-0.721l-0.719-0.761l-0.611-0.961l-0.432-0.36l-0.899-2.442l-0.791-2.122l-0.503-1.722l-0.18-1.321
		l0.108-1.481l0.288-1.562l0.288-1.321l0.359-0.881l0.36-1.001l0.324-0.48l0.647-0.641l0.503-0.08l0.899-1.401l1.043-1.001
		l1.079-0.641l1.331-0.24h1.69l1.402-0.08l1.906,0.24l1.546,0.48l4.279,2.362l1.115,0.761l1.043,1.041l0.575,0.841l0.359,1.401
		V76.802z M166.37,74.464l-0.611-0.73l-0.935-0.527l-1.042-0.487l-1.187-0.162h-1.15l-1.043,0.325l-1.043,0.486l-0.935,0.771
		l-0.54,0.325l-0.575,0.729l0.216,0.527l0.503-0.082l0.827,0.082h1.402l1.187,0.32h1.223l1.33-0.08l1.187-0.322l1.042-0.324
		L166.37,74.464z M169.535,88.974l-0.432,0.4l-0.396-0.4l0.216-0.521h0.539L169.535,88.974z"/>
	<path fill="#D8A9FF" d="M185.285,44.411l-0.216,0.761v0.961l-0.072,1.481l-0.324,1.321l-0.288,1.802l0.288,1.401l-0.288,1.241
		l-0.144,1.562l-0.288,3.844l-0.288,1.161l-0.072,1.281l0.072,1.882l-0.611,1.321l-0.216,1.802l-0.359,1.962l-0.288,2.162
		l-0.288,1.481l-0.467,1.121l0.072,0.841v1.121l-0.288,1.081l-0.144,1.401l-0.072,1.121l-0.216,1.562v1.321l-0.359,1.481v3.604
		l0.072,1.161v1.121l0.144,1.161l0.432,0.921l0.971,0.961l0.503,0.761l1.187,1.281l-0.144,0.601h-0.755l-0.863-0.4l-1.043-0.921
		l-0.971-1.562l-0.647-1.321l-0.072-1.281l-0.072-1.642v-1.241l-0.215-1.401l-0.18-1.401v-1.562l0.396-1.562l0.072-1.562
		l0.216-1.121l0.215-1.241l-0.144-1.321l0.144-1.481v-1.602l0.216-1.241l-0.216-1.321l-0.144-1.642l0.144-2.042l-0.359-2.282
		l-0.072-2.242l0.072-1.882l-0.144-4.164l0.072-1.722l-0.072-1.722l-0.396-1.562l-0.359-1.642l-0.288-1.722l-0.576-1.161
		l-0.611-1.081l-0.359-1.201v-1.481l0.647-0.921l1.042-0.561l1.043-0.48h0.935l0.899,0.08l1.042,0.561l1.007,1.001l0.755,0.641
		l0.719,0.841L185.285,44.411z M187.119,78.604l-0.503,0.44l-0.611-0.32l0.359-0.841l0.683,0.08L187.119,78.604z"/>
	<path fill="#D8A9FF" d="M212.219,62.468l-0.072,0.48l-0.575,0.36l-0.36-0.601l0.432-0.641L212.219,62.468z M239.044,87.333
		l-0.072,1.121l-0.539,0.921l-0.288,0.721l-0.647,0.601h-1.115l-0.971,0.32l-1.079,0.4h-1.258l-1.475-0.16l-1.69,0.32h-1.115
		l-1.258,0.4l-1.007,0.681l-1.403,0.48l-1.33,0.921l-1.115,0.801h-2.05l-1.259-0.24H217.9l-1.187-0.08l-1.007-0.24l-1.115-0.44
		l-1.259,0.2l-0.827-0.28l-0.359-0.641l0.072-0.921v-1.041l0.072-0.921l0.396-0.881l-0.18-0.921l0.18-0.801l0.215-1.001v-1.241
		l0.36-1.521l0.072-1.562l-0.072-1.321l0.216-1.241l0.144-1.401l0.288-1.201l0.072-1.481l-0.072-0.841v-3.123l0.072-1.361v-1.802
		l0.18-1.321l0.144-1.722l0.072-1.081l-0.072-1.121l-0.144-1.161l0.144-1.081v-1.401l0.072-1.281l0.144-1.241l-0.144-0.761
		l0.144-0.801l0.144-1.081l-0.072-0.801l0.288-1.001l-0.36-0.881l-0.144-1.161v-1.321l-0.072-1.201l-0.144-1.241v-1.081l0.359-0.721
		l-0.539-0.681l-0.144-0.801l0.467-0.721v-0.921l0.288-1.001v-1.201l0.072-1.081l-0.072-0.721l0.647-0.921l0.755-0.721l0.719-0.32
		l0.899-0.12l0.935-0.32l0.899,0.08l0.827,0.601l0.792,0.48l0.971,0.721l0.647,1.081l0.288,1.161l0.144,0.881l-0.288,1.081
		l-0.144,0.801l-0.863,0.841l-0.54,0.961l-0.215,1.562l-0.36,1.081l-0.216,1.081l-0.216,1.121l-0.323,1.161v1.321l-0.36,1.281
		l-0.288,2.322v1.201l-0.359,1.081l-0.216,0.841l-0.396,0.721l-0.072,1.081l-0.216,1.281l-0.288,2.723v1.321l-0.359,1.121
		l-0.144,1.481l-0.323,1.401v1.321l-0.216,0.961l-0.144,0.841v1.241l-0.288,1.041l-0.072,1.081l-0.216,1.241l-0.36,1.361
		l0.072,1.001l-0.072,1.642l-0.251,1.241l-0.216,0.881v0.601l-0.144,0.881l-0.072,1.081l0.216,0.48l0.683,0.16l0.791-0.4l1.259-0.16
		l1.402-0.16h0.791l1.043,0.48h1.187l0.791-0.32l0.971-0.08l1.331-0.521l0.719-0.32l1.115,0.08l1.403,0.24l1.33-0.24l1.546-0.4
		l1.187-0.641l0.935-0.521l0.216-0.721l1.043-0.641l0.827-0.44l1.007,0.24l0.755,0.601l0.432,0.881l0.755,0.841l0.144,0.881
		l0.216,1.081V87.333z M233.722,74.12l-0.215,0.48l-0.432-0.16l-0.36-0.721l0.503-0.681l0.503,0.4V74.12z"/>
	<path fill="#D8A9FF" d="M263.424,90.255l-0.359,0.681l-0.468,0.32l-0.575,0.08l-0.503-0.16l-0.324-0.4l-0.575-0.761l-0.719-0.641
		l-0.54-0.601l-0.935-2.282l-0.144-0.961l-0.252-0.841l-0.215-0.641h-0.288l-0.359,0.48l-0.432,0.801l-0.251,0.761l-0.216,0.801
		l-0.36,0.841l-0.431,0.721l-0.54,0.681l-0.575,0.881l-0.971,0.601l-0.719,0.4l-1.402,0.4l-1.115,0.08l-0.863-0.16l-0.971-0.561
		l-1.187-0.36l-0.791-0.721l-0.971-0.561l-0.576-0.681l-0.827-0.801l-0.288-1.241l-0.431-1.321l-0.288-1.281l-0.324-1.562
		l-0.288-0.921l0.215-1.241l-0.359-1.481l-0.072-0.801l-0.072-1.241l-0.144-1.041l-0.144-0.761l0.072-1.041l0.215-0.841l0.719-0.881
		l0.971-0.44l0.755-0.08l0.935,0.16l0.899,0.521l0.647,0.561l0.611,1.001l0.359,0.881l0.288,1.241l-0.144,0.881l-0.503,0.761
		l-0.468,0.881l-0.072,1.161l-0.359,1.321v1.121l0.072,1.562l0.359,1.642l0.54,0.761l0.575,1.041l1.043,0.841l1.007,0.561l1.258,0.4
		l0.971-0.4l0.935-0.561l0.755-0.841l0.719-1.281l0.54-1.081l0.431-1.081l0.36-1.121l0.288-1.481l0.18-1.722l-0.324-1.481
		l-0.215-1.321l-0.216-0.561l0.144-1.081l-0.072-1.041l0.144-0.841l0.215-0.721l0.144-1.081l0.396-0.641l0.432-0.32l0.647,0.24
		l0.324,0.641l0.072,0.561l0.288,0.841l-0.072,0.801v1.241l-0.288,1.241v0.561l-0.324,0.48l0.18,1.001l0.144,1.161l0.36,1.041
		l0.072,1.642l0.359,1.081l0.288,1.401l0.144,1.121l0.396,1.241l0.432,0.921l0.575,0.801l0.611,0.721l1.618,0.841L263.424,90.255z
		 M251.054,79.845l-0.144,1.882l-1.043,1.161l-0.863-0.921l-0.611-1.361l0.072-1.481l-0.359-0.841l0.431-0.48l0.755,0.08l0.719,0.48
		L251.054,79.845z"/>
	<path fill="#D8A9FF" d="M265.546,76.482l-0.359,0.601l-0.36-0.36l-0.396-0.48l0.468-0.561h0.647V76.482z M284.46,72.958
		l-0.144,1.081l-0.36,0.801l-0.971,1.882l-1.007,0.36h-1.402l-1.187-0.44l-0.935-0.16l-1.259-0.4h-1.115l-0.755,0.32l-1.295,0.841
		l-0.755,0.881l-0.791,1.161l-0.54,1.161l-0.288,0.961l-0.216,0.681l-0.503,0.48l-0.324,1.642l-0.072,1.201v2.322l0.467,1.241
		l0.935,1.041l0.827,0.4l1.258,0.44l0.791,0.4h2.733l1.187-0.24l0.647-0.32l0.503-0.44l0.684,0.08l0.359,0.681l-0.144,0.561
		l-0.719,0.641l-0.971,0.521l-1.258,0.561l-1.115,0.4l-0.935,0.16l-1.834,0.2l-1.726-0.2l-1.007-0.48l-0.971-0.48l-1.007-0.761
		l-0.755-0.32l-0.432-1.121l-0.467-1.001l-0.288-1.161l-0.144-1.481l-0.359-1.642l-0.216-1.802v-1.281l-0.072-1.722l0.072-1.321
		l0.216-1.401l0.503-1.161l0.216-0.801V74.36l0.324-1.161l1.402-1.361l0.647-0.36l0.503-0.16l1.331-0.561l0.899-0.32l0.791-0.08
		l1.331-0.36l1.331-0.561l1.043-0.32l1.079-0.32l1.043,0.08l1.187,0.24l1.115,0.4l1.079,0.921l0.899,0.641l0.719,0.841
		L284.46,72.958z"/>
	<path fill="#D8A9FF" d="M309.595,76.802l-0.647,1.081l-1.042,0.641l-1.259,0.601l-1.546,0.561l-1.69,0.16l-1.546,0.4l-1.079,0.601
		l-1.259,0.48l-1.043,0.32l-1.69,0.08l-1.331-0.16l-0.899,0.08l-0.791,0.32l-0.36,0.921l0.144,1.722l0.432,0.921l0.827,1.121
		l1.546,1.882l0.791,0.841l1.546,0.881l0.827,0.44l1.007,0.48h1.187l1.115-0.32l0.935-0.16l1.043-0.44l1.043-0.24h0.646l0.072,0.32
		l-0.359,0.44l-0.647,0.48l-1.114,0.641l-1.187,0.681l-1.115,0.48l-1.078,0.32l-1.618-0.08l-1.619-0.4l-1.331-0.761l-1.546-1.121
		l-1.402-1.321l-0.971-0.721l-0.719-0.761l-0.611-0.961l-0.432-0.36l-0.899-2.442l-0.791-2.122l-0.503-1.722l-0.18-1.321
		l0.108-1.481l0.288-1.562l0.288-1.321l0.359-0.881l0.36-1.001l0.324-0.48l0.647-0.641l0.503-0.08l0.899-1.401l1.043-1.001
		l1.079-0.641l1.331-0.24h1.69l1.403-0.08l1.906,0.24l1.546,0.48l4.278,2.362l1.115,0.761l1.043,1.041l0.575,0.841l0.359,1.401
		V76.802z M302.763,74.464l-0.611-0.73l-0.935-0.527l-1.043-0.487l-1.187-0.162h-1.151l-1.043,0.325l-1.043,0.486l-0.935,0.771
		l-0.54,0.325l-0.575,0.729l0.216,0.527l0.503-0.082l0.827,0.082h1.402l1.187,0.32h1.223l1.33-0.08l1.187-0.322l1.043-0.324
		L302.763,74.464z M305.928,88.974l-0.432,0.4l-0.396-0.4l0.216-0.521h0.539L305.928,88.974z"/>
	<path fill="#D8A9FF" d="M333.364,90.175l-0.287,0.44l-0.36,0.32l-0.755-0.08l-0.647-0.681l-0.216-0.721l-0.071-1.081v-0.881
		l-0.288-1.161l-0.072-1.161v-1.041l-0.323-1.081l-0.072-1.241l-0.575-1.962l-0.143-2.963l-0.61-2.042l-0.859-0.881l-1.039-0.521
		l-0.431-0.641l-0.752-0.4l-1.147,0.4l-0.824,0.32l-0.717,0.921L322.421,75l-0.932,1.481l-0.395,1.001l-0.215,0.881l-0.144,0.841
		l-0.573,0.881l-0.681,0.921l-0.287,1.321l-0.071,1.481v1.441l-0.144,1.802l-0.071,1.642v1.481l0.071,1.401l0.288,1.241l0.216,1.041
		l0.071,1.001l-0.361,0.48l-0.29,0.44l-0.688,0.16h-0.653l-0.435-0.36l-0.362-0.48l-0.399-1.401l-0.217-1.121l-0.29-2.322v-0.881
		l-0.146-1.001l-0.145-1.321v-1.521l-0.146-1.401v-1.081l-0.072-1.081l-0.254-1.201v-1.481l-0.072-1.321v-5.085l-0.288-0.961
		l-0.432-0.761l-0.287-0.641l-0.288-0.841l-0.107-0.961l0.107-0.761l0.359-0.721l0.432-0.48l0.827-0.681l1.007-0.08l1.043,0.08
		l0.791,0.561l0.755,0.601l0.792,0.881l0.396,0.601l0.287,0.961l0.791,0.44l0.756-0.28l1.042-0.16l1.007-0.32l0.972-0.32l1.258-0.16
		l1.007-0.16l1.043,0.4l0.504,0.641l0.467,1.161l0.36,0.801l0.144,1.161l0.359,0.761l0.539,0.961l0.36,1.321l0.071,1.161
		l0.072,1.281l0.216,1.241l0.072,1.241l0.287,1.121l0.072,1.081v1.161l0.144,1.121l0.396,1.161l0.144,1.161l0.576,0.881l0.287,0.921
		V90.175z M330.055,91.336l-0.287,0.48l-0.359,0.16l-0.288-0.641l0.575-0.641L330.055,91.336z"/>
	<path fill="#D8A9FF" d="M356.63,91.417l-0.072,0.561l-0.503,0.601h-0.54l-0.575-0.681l-0.287-1.041l-0.468-0.841l-0.288-1.161
		l-0.287-0.32l-0.432,0.24l-0.611,0.44l-0.647,0.881l-1.043,0.681l-0.646,0.721l-1.115,0.641l-1.259,0.521l-1.078,0.4l-0.972,0.32
		l-0.719,0.32l-0.755-0.24l-1.043-0.16l-1.223-0.561l-1.115-0.761l-0.683-0.961l-0.504-1.081l-0.071-1.722v-1.161l0.216-1.281
		l0.683-1.321l0.647-1.241l0.899-0.881l0.935-0.761l1.259-0.24l1.114-0.16l1.259-0.32l1.079-0.761l1.402-0.801l0.683-0.32l0.72-0.24
		l0.287-0.841l-0.575-1.161l-0.683-1.041l-1.438-1.481l-1.475-0.48l-1.187-0.08l-0.432,0.08h-0.755l-0.899,0.48l-0.791,0.561
		l-0.971,0.16h-1.079l-1.259,0.36h-1.114l-0.899-0.521l-0.646-0.721l-0.072-1.001l0.216-0.881l0.755-1.001l0.791-1.161l0.971-0.881
		l1.079-0.641l1.187-1.081l1.115-0.561l2.05-0.44l1.762-0.16l1.259,0.4l1.043,0.601l1.114,0.4l1.259,0.921l0.647,0.721l0.646,1.161
		l0.468,1.481l0.359,1.441l0.504,1.922l0.467,1.441l0.072,1.241l-0.072,1.562l0.36,1.802l0.216,1.882l0.646,3.283l0.396,1.241
		l0.36,1.121l0.287,1.401L356.63,91.417z M351.632,82.888l-0.288-0.48l-1.043-0.32l-0.898,0.08l-0.791,0.4l-0.899,0.32l-0.935,0.561
		l-0.899,0.16l-0.791,0.44l-0.684,0.561l-0.431,0.721l-0.54,0.921l-0.144,0.801l-0.288,0.761v0.961l0.36,0.841l0.971,0.32h1.043
		l1.15-0.32l0.539-0.641l0.72-0.2l1.689-1.281l0.827-0.601l0.575-1.041l0.611-0.841l0.072-1.121L351.632,82.888z M353.537,91.176
		l-0.287,0.24l-0.611-0.24l0.18-0.48l0.432-0.28L353.537,91.176z M356.414,84.29l-0.432,0.32l-0.396-0.16v-0.48l0.684-0.36
		L356.414,84.29z"/>
</g>
<path fill="#D8A9FF" d="M409.318,94.116c-6.682,19.89-21.258,34.694-41.032,41.683c-20.036,7.081-42.331,6.058-62.727,1.167
	c-14.205-3.407-28.086-8.086-42.317-11.453c-15.181-3.591-30.507-5.918-46.042-7.231c-31.762-2.684-63.301,4.984-95.06,4.164
	c-6.453-0.167-6.437,9.834,0,10c31.795,0.821,63.24-6.454,95.06-4.164c15.926,1.146,31.577,4.015,47.083,7.758
	c14.251,3.44,28.158,8.294,42.466,11.455c40.493,8.946,88.695,0.088,108.181-40.575c1.571-3.281,2.875-6.699,4.032-10.145
	C421.02,90.644,411.36,88.036,409.318,94.116z"/>
</svg>
